<svg xmlns="http://www.w3.org/2000/svg" viewBox="0 0 24 24">
<path style="fill:#828A99;" d="M19.581543,12.128479h-3.4699707h-0.723877V2.6387329c0-1.1523438-0.9375-2.0898438-2.0898438-2.0898438
	h-2.2626953c-1.1948242,0-2.1674805,0.9726563-2.1674805,2.1679688v9.4116211H7.8215332H4.371582
	c-0.3076782,0.0023193-0.6048584,0.1119995-0.84021,0.3100586c-0.5577393,0.4694824-0.6292725,1.3021851-0.15979,1.8599243
	l7.5999756,8.9400024l0.1500244,0.1500244c0.5551147,0.4719238,1.3876343,0.4047852,1.8599854-0.1500244l7.5999756-8.9400024
	c0.1981201-0.2353516,0.3078003-0.5325317,0.3101196-0.8401489C20.8970947,12.7293091,20.3105469,12.1339111,19.581543,12.128479z
	 M11.9815674,21.6384888l-6.5499878-7.710022h4.1999512v-0.0006714h1.1365356V2.7168579
	c0-0.1474609,0.1196289-0.2675781,0.2670898-0.2675781h2.2626953c0.1044922,0,0.1894531,0.0849609,0.1894531,0.1894531v11.2890625
	h0.8442383v0.0006714h4.2000122L11.9815674,21.6384888z"/>
</svg>
