<?xml version="1.0" encoding="UTF-8" standalone="no"?>
<svg width="70px" height="93px" viewBox="0 0 70 93" version="1.1" xmlns="http://www.w3.org/2000/svg" xmlns:xlink="http://www.w3.org/1999/xlink">
    <!-- Generator: Sketch 3.7.1 (28215) - http://www.bohemiancoding.com/sketch -->
    <title>ya_bw</title>
    <desc>Created with Sketch.</desc>
    <defs></defs>
    <g id="Page-2" stroke="none" stroke-width="1" fill="none" fill-rule="evenodd">
        <g id="ya_bw">
            <g id="Group-2-Copy">
                <g id="Page-1-Copy-5" fill="#000000">
                    <path style="fill:#FFCC02;" d="M56,57 L56,62 L56,62 L56,62 C55.5432505,75.5926666 44.7931649,86.0056765 31,86 C17.9872092,86.0056765 6.99432355,75.0127908 7,62 C6.99432355,47.9877359 17.9872092,36.9943235 31,37 C32.1149001,36.9943235 32.7263767,37.0169708 33,37 L33,30 C32.72427,30.0574082 32.1191135,30 31,30 C14.1024102,30 0,44.1029369 0,62 C0,78.8975898 14.1024102,93 31,93 C48.8970631,93 63,78.8975898 63,62 C63,53.9992727 60.3681751,47.1192389 56,42 L56,57 Z" id="Fill-1"></path>
                    <path style="fill:#EE0000;" d="M41,0 L41,47 C38.5315739,45.4863302 35.2729284,44.3969506 32,44 C22.5026459,44.3969506 15,51.9190326 15,61 C15,70.4773922 22.5026459,78 32,78 C40.8284627,78 49.1973856,70.7707676 49,62 L49,18 L70,25 L70,10 L41,0 Z" id="Fill-3"></path>
                </g>
            </g>
        </g>
    </g>
</svg>